<svg xmlns="http://www.w3.org/2000/svg" version="1.1" xmlns:xlink="http://www.w3.org/1999/xlink" xmlns:svgjs="http://svgjs.dev/svgjs" width="2000" height="300" viewBox="0 0 2000 300"><g transform="matrix(1,0,0,1,-0.7331624205390881,0.09078947368416834)"><svg viewBox="0 0 379 57" data-background-color="#ffffff" preserveAspectRatio="xMidYMid meet" height="300" width="2000" xmlns="http://www.w3.org/2000/svg" xmlns:xlink="http://www.w3.org/1999/xlink"><defs></defs><g id="tight-bounds" transform="matrix(1,0,0,1,0.13893427869214747,-0.017249999999989996)"><svg viewBox="0 0 378.7221314426157 57.0345" height="57.0345" width="378.7221314426157"><g><svg viewBox="0 0 378.7221314426157 57.0345" height="57.0345" width="378.7221314426157"><g><svg viewBox="0 0 378.7221314426157 57.0345" height="57.0345" width="378.7221314426157"><g><svg viewBox="0 0 378.7221314426157 57.0345" height="57.0345" width="378.7221314426157"><g><svg viewBox="0 0 378.7221314426157 57.0345" height="57.0345" width="378.7221314426157"><g><svg><g></g><g></g></svg></g><g><svg><g><svg></svg></g><g></g></svg></g><g id="text-0"><svg viewBox="0 0 378.7221314426157 57.0345" height="57.0345" width="378.7221314426157"><g transform="matrix(1,0,0,1,0,0)"><svg width="265.4430125" viewBox="1.85 -35.15 164.03625 35.25" height="57.0345" data-palette-color="#e5dada"><path d="M16.45 0.1L16.45 0.1Q15.65 0.1 14.85 0.05 14.05 0 13.2-0.05L13.2-0.05Q12.85-2.75 12.45-5.1 12.05-7.45 11.5-9.43 10.95-11.4 10.18-12.98 9.4-14.55 8.35-15.7L8.35-15.7Q7.75-16.35 7-16.75 6.25-17.15 5.5-17.25L5.5-17.25 5.5-18.05 13.6-34.7Q14.45-34.9 15.2-34.98 15.95-35.05 16.55-35.05L16.55-35.05Q19.05-35.05 18.45-33.8L18.45-33.8 11.2-19.95Q14.1-17.6 15.88-12.78 17.65-7.95 18.3-0.95L18.3-0.95Q18.35-0.4 18-0.15 17.65 0.1 16.45 0.1ZM1.85 0L1.85 0 1.85-34.1Q1.85-34.55 2.08-34.73 2.3-34.9 3.25-34.95 4.2-35 6.5-35L6.5-35 6.5-0.9Q6.5-0.45 6.33-0.28 6.15-0.1 5.18-0.05 4.2 0 1.85 0ZM22.1 0.1L22.1 0.1Q21.7 0.1 20.87 0.05 20.05 0 19.25-0.1L19.25-0.1 28-34.3Q28.15-35.15 29.75-35.15L29.75-35.15Q30.35-35.15 30.92-35.1 31.5-35.05 31.9-34.95L31.9-34.95 40.65-0.8Q40.75-0.35 40.37-0.13 40 0.1 38.65 0.1L38.65 0.1Q38.2 0.1 37.52 0.08 36.85 0.05 35.95 0L35.95 0 31.6-19Q31.3-20.6 30.95-22.3 30.6-24 30.37-25.65 30.15-27.3 30-28.6L30-28.6Q29.9-27.3 29.62-25.65 29.35-24 29.05-22.3 28.75-20.6 28.4-19L28.4-19 24.25-0.8Q24.15-0.35 23.82-0.13 23.5 0.1 22.1 0.1ZM36.3-8.55L24.55-8.55 24.55-12.7 36.3-12.7 36.3-8.55ZM59.95 0L56.45 0 50.9-13.65Q50.55-14.55 50.05-16.05 49.55-17.55 48.97-19.35 48.4-21.15 47.9-22.95 47.4-24.75 46.95-26.25 46.5-27.75 46.25-28.65 46-29.55 46-29.55L46-29.55 43.35-32.3 43.65-35 47.15-35 52.65-21.6Q53.05-20.6 53.57-19.05 54.1-17.5 54.65-15.73 55.2-13.95 55.7-12.23 56.2-10.5 56.62-9.05 57.05-7.6 57.3-6.73 57.55-5.85 57.55-5.85L57.55-5.85 60.35-2.7 59.95 0ZM42.75 0L42.75 0 42.75-34.1Q42.75-35 43.65-35L43.65-35 47.3-34.1 46.65-27.4Q46.8-26.6 46.87-25.4 46.95-24.2 47.02-22.8 47.1-21.4 47.15-19.95 47.2-18.5 47.22-17.15 47.25-15.8 47.27-14.7 47.3-13.6 47.3-12.95L47.3-12.95 47.3-0.9Q47.3-0.45 47.1-0.28 46.9-0.1 45.97-0.05 45.05 0 42.75 0ZM59.95 0L59.95 0 56.25-0.9 56.85-8.55Q56.7-9.4 56.62-10.58 56.55-11.75 56.5-13.08 56.45-14.4 56.4-15.75 56.35-17.1 56.32-18.35 56.3-19.6 56.27-20.65 56.25-21.7 56.25-22.4L56.25-22.4 56.25-34.1Q56.25-34.55 56.45-34.73 56.65-34.9 57.62-34.95 58.6-35 60.8-35L60.8-35 60.8-0.9Q60.8 0 59.95 0ZM69.64 0L69.64 0 69.64-34.4Q69.64-34.4 69.77-34.48 69.89-34.55 70.54-34.55L70.54-34.55 73.34-34.55Q73.99-34.55 74.09-34.48 74.19-34.4 74.19-34.4L74.19-34.4 74.19-0.85Q74.19-0.45 73.99-0.28 73.79-0.1 72.84-0.05 71.89 0 69.64 0ZM80.09-30.7L63.09-30.7 63.09-34.1Q63.09-35 63.94-35L63.94-35 80.94-35 80.94-31.6Q80.94-31.1 80.77-30.9 80.59-30.7 80.09-30.7L80.09-30.7ZM83.34 0L83.34 0 83.34-32.95Q83.34-34 83.54-34.43 83.74-34.85 84.72-34.93 85.69-35 87.99-35L87.99-35 87.99-0.9Q87.99-0.45 87.79-0.28 87.59-0.1 86.62-0.05 85.64 0 83.34 0ZM102.64-7.9L100.74-7.9 98.19-15.6Q98.04-16.05 97.71-17.25 97.39-18.45 96.96-20.05 96.54-21.65 96.06-23.33 95.59-25 95.21-26.45 94.84-27.9 94.61-28.78 94.39-29.65 94.39-29.65L94.39-29.65 96.14-35 100.64-20.8Q100.94-19.95 101.21-18.98 101.49-18 101.69-17.2 101.89-16.4 102.01-15.9 102.14-15.4 102.14-15.4L102.14-15.4Q102.14-15.4 102.24-15.9 102.34-16.4 102.56-17.2 102.79-18 103.01-18.93 103.24-19.85 103.54-20.7L103.54-20.7 107.59-34.1 109.64-29.5Q109.64-29.5 109.41-28.63 109.19-27.75 108.81-26.35 108.44-24.95 107.99-23.28 107.54-21.6 107.09-20.05 106.64-18.5 106.31-17.3 105.99-16.1 105.79-15.6L105.79-15.6 103.19-8.3Q103.09-7.9 102.64-7.9L102.64-7.9ZM91.89 0L91.89 0 91.89-34.1Q91.89-34.75 92.16-34.88 92.44-35 92.79-35L92.79-35 96.14-35 96.39-27.55 95.19-26.1Q95.19-26.1 95.26-25.48 95.34-24.85 95.46-23.73 95.59-22.6 95.71-21.13 95.84-19.65 95.96-18.03 96.09-16.4 96.19-14.7 96.29-13 96.29-11.45L96.29-11.45 96.39-0.9Q96.39-0.45 96.16-0.28 95.94-0.1 94.99-0.05 94.04 0 91.89 0ZM107.54 0L107.54 0 107.74-11.3Q107.79-12.85 107.89-14.55 107.99-16.25 108.11-17.93 108.24-19.6 108.36-21.13 108.49-22.65 108.59-23.8 108.69-24.95 108.76-25.63 108.84-26.3 108.84-26.3L108.84-26.3 107.59-27.35 107.59-34.1Q107.74-34.55 107.89-34.77 108.04-35 108.49-35L108.49-35Q110.34-35 111.11-35 111.89-35 112.06-35 112.24-35 112.24-35L112.24-35 112.24-0.9Q112.24-0.45 112.04-0.28 111.84-0.1 110.86-0.05 109.89 0 107.54 0ZM122.54 0L116.14 0 116.14-34.05Q116.14-34.5 116.41-34.75 116.69-35 117.49-35L117.49-35 122.44-35Q123.99-35 125.46-34.68 126.94-34.35 128.16-33.52 129.39-32.7 130.11-31.18 130.84-29.65 130.84-27.25L130.84-27.25Q130.84-24.55 130.09-22.83 129.34-21.1 128.26-20.23 127.19-19.35 126.14-19.2L126.14-19.2Q126.99-19.1 127.99-18.8 128.99-18.5 129.89-17.73 130.79-16.95 131.39-15.55 131.99-14.15 131.99-11.9L131.99-11.9Q131.99-9.55 131.54-7.68 131.09-5.8 130.26-4.38 129.44-2.95 128.29-1.98 127.14-1 125.69-0.5 124.24 0 122.54 0L122.54 0ZM120.79-17L120.79-4 122.64-4Q123.44-4 124.14-4.45 124.84-4.9 125.39-5.83 125.94-6.75 126.24-8.15 126.54-9.55 126.54-11.5L126.54-11.5Q126.54-13.35 126.26-14.45 125.99-15.55 125.49-16.1 124.99-16.65 124.29-16.82 123.59-17 122.69-17L122.69-17 120.79-17ZM120.79-31L120.79-20.85 122.74-20.85Q123.64-20.85 124.34-21.48 125.04-22.1 125.41-23.3 125.79-24.5 125.79-26.3L125.79-26.3Q125.79-28.25 125.36-29.28 124.94-30.3 124.26-30.65 123.59-31 122.79-31L122.79-31 120.79-31ZM146.43 0L134.68 0 134.68-34.1Q134.68-34.1 134.81-34.55 134.93-35 135.53-35L135.53-35 147.53-35Q147.53-33.15 147.51-32.3 147.48-31.45 147.31-31.18 147.13-30.9 146.68-30.9L146.68-30.9 139.23-30.9 139.23-4.1 147.28-4.1Q147.28-2.2 147.23-1.33 147.18-0.45 147.03-0.23 146.88 0 146.43 0L146.43 0ZM145.43-16.9L135.18-16.9 135.18-21.1 146.28-21.1Q146.28-18.5 146.18-17.7 146.08-16.9 145.43-16.9L145.43-16.9ZM156.13-13.95L151.73-13.95Q150.93-13.95 150.86-14.23 150.78-14.5 150.78-15.15L150.78-15.15 150.78-34.05Q150.78-34.15 150.83-34.58 150.88-35 151.48-35L151.48-35 156.03-35Q159.18-35 161.28-34.02 163.38-33.05 164.41-30.85 165.43-28.65 165.43-25L165.43-25Q165.43-21.8 164.66-19.68 163.88-17.55 162.58-16.3 161.28-15.05 159.63-14.5 157.98-13.95 156.13-13.95L156.13-13.95ZM150.28 0L150.28 0 150.28-34.1Q150.28-34.1 150.38-34.55 150.48-35 151.18-35L151.18-35 153.98-35Q154.63-35 154.73-34.55 154.83-34.1 154.83-34.1L154.83-34.1 154.83-0.9Q154.83-0.45 154.63-0.28 154.43-0.1 153.48-0.05 152.53 0 150.28 0ZM163.58 0.1L163.58 0.1Q163.03 0.1 162.36 0.08 161.68 0.05 160.88 0L160.88 0Q160.68-4.35 159.96-7.25 159.23-10.15 158.36-11.83 157.48-13.5 156.86-14.23 156.23-14.95 156.23-14.95L156.23-14.95Q156.23-14.95 156.11-15.28 155.98-15.6 156.53-15.9L156.53-15.9 159.03-17.35Q159.73-17.35 159.98-16.85L159.98-16.85Q159.98-16.85 160.81-15.98 161.63-15.1 162.73-13.2 163.83-11.3 164.76-8.28 165.68-5.25 165.88-1L165.88-1Q165.93-0.35 165.58-0.13 165.23 0.1 163.58 0.1ZM154.78-31L154.78-18.2 156.63-18.2Q157.83-18.2 158.63-18.85 159.43-19.5 159.88-21.05 160.33-22.6 160.33-25.2L160.33-25.2Q160.33-27.1 160.01-28.4 159.68-29.7 158.96-30.35 158.23-31 156.93-31L156.93-31 154.78-31Z" opacity="1" transform="matrix(1,0,0,1,0,0)" fill="#e5dada" class="undefined-text-0" data-fill-palette-color="primary"></path></svg></g><g><svg xmlns="http://www.w3.org/2000/svg" xmlns:xlink="http://www.w3.org/1999/xlink" version="1.1" x="278.90851250000003" y="0" viewBox="0 21.429 100 57.14099999999999" enable-background="new 0 0 100 100" xml:space="preserve" height="57.0345" width="99.81361894261566" class="icon-li-0" data-fill-palette-color="accent" id="li-0"><g fill="#e59500" data-fill-palette-color="accent"><g fill="#e59500" data-fill-palette-color="accent"><polygon points="40.685,56.518 45.338,56.518 37.657,43.757 41.499,43.757 32.534,28.867 23.574,43.757 27.412,43.757     19.734,56.518 24.388,56.518 14.249,73.371 28.676,73.371 28.676,78.57 36.397,78.57 36.397,73.371 50.826,73.371   " fill="#e59500" data-fill-palette-color="accent"></polygon><polygon points="100,63.156 92.373,50.484 95.873,50.484 90.098,40.891 92.982,40.891 86.244,29.693 79.507,40.891 82.393,40.891     76.619,50.484 80.116,50.484 72.494,63.156 83.346,63.156 83.346,67.066 89.146,67.066 89.146,63.156   " fill="#e59500" data-fill-palette-color="accent"></polygon><polygon points="59.357,53.387 59.357,50.044 68.637,50.044 62.116,39.209 65.109,39.209 60.175,31.006 62.641,31.006     56.88,21.429 51.115,31.006 53.586,31.006 48.646,39.209 51.643,39.209 45.121,50.044 54.396,50.044 54.396,53.387   " fill="#e59500" data-fill-palette-color="accent"></polygon><polygon points="69.193,67.208 71.527,67.208 67.68,60.816 69.604,60.816 65.113,53.354 60.623,60.816 62.546,60.816     58.698,67.208 61.029,67.208 55.951,75.648 63.182,75.648 63.182,78.255 67.046,78.255 67.046,75.648 74.271,75.648   " fill="#e59500" data-fill-palette-color="accent"></polygon><polygon points="18.323,59.895 13.242,51.451 15.578,51.451 11.73,45.06 13.651,45.06 9.164,37.599 4.674,45.06 6.597,45.06     2.747,51.451 5.083,51.451 0,59.895 7.226,59.895 7.226,62.5 11.095,62.5 11.095,59.895   " fill="#e59500" data-fill-palette-color="accent"></polygon></g></g></svg></g></svg></g></svg></g></svg></g></svg></g></svg></g></svg><rect width="378.7221314426157" height="57.0345" fill="none" stroke="none" visibility="hidden"></rect></g></svg></g></svg>